<mxfile host="app.diagrams.net" modified="2022-03-27T09:34:07.745Z" agent="5.0 (Windows NT 10.0; Win64; x64) AppleWebKit/537.36 (KHTML, like Gecko) Chrome/99.0.4844.74 Safari/537.36 Edg/99.0.1150.52" etag="HKbXcmVE5Rr86CWCGUda" version="17.1.3" type="github">
  <diagram id="DWMk8w7gl346RLoNRcCy" name="ERD">
    <mxGraphModel dx="1103" dy="582" grid="1" gridSize="10" guides="1" tooltips="1" connect="1" arrows="1" fold="1" page="1" pageScale="1" pageWidth="850" pageHeight="1100" math="0" shadow="0">
      <root>
        <mxCell id="0" />
        <mxCell id="1" parent="0" />
        <mxCell id="v0BU9M_BulBIxNK9-v0d-3" value="Pengguna" style="whiteSpace=wrap;html=1;" vertex="1" parent="1">
          <mxGeometry x="160" y="140" width="120" height="60" as="geometry" />
        </mxCell>
        <mxCell id="v0BU9M_BulBIxNK9-v0d-21" style="edgeStyle=orthogonalEdgeStyle;rounded=0;orthogonalLoop=1;jettySize=auto;html=1;exitX=0.5;exitY=1;exitDx=0;exitDy=0;entryX=0.5;entryY=0;entryDx=0;entryDy=0;" edge="1" parent="1" source="v0BU9M_BulBIxNK9-v0d-4" target="v0BU9M_BulBIxNK9-v0d-9">
          <mxGeometry relative="1" as="geometry" />
        </mxCell>
        <mxCell id="v0BU9M_BulBIxNK9-v0d-4" value="Anggota" style="whiteSpace=wrap;html=1;" vertex="1" parent="1">
          <mxGeometry x="530" y="140" width="120" height="60" as="geometry" />
        </mxCell>
        <mxCell id="v0BU9M_BulBIxNK9-v0d-6" value="Absensi" style="whiteSpace=wrap;html=1;" vertex="1" parent="1">
          <mxGeometry x="530" y="500" width="120" height="60" as="geometry" />
        </mxCell>
        <mxCell id="v0BU9M_BulBIxNK9-v0d-22" style="edgeStyle=orthogonalEdgeStyle;rounded=0;orthogonalLoop=1;jettySize=auto;html=1;exitX=0.5;exitY=1;exitDx=0;exitDy=0;entryX=0.5;entryY=0;entryDx=0;entryDy=0;" edge="1" parent="1" source="v0BU9M_BulBIxNK9-v0d-9" target="v0BU9M_BulBIxNK9-v0d-6">
          <mxGeometry relative="1" as="geometry" />
        </mxCell>
        <mxCell id="v0BU9M_BulBIxNK9-v0d-9" value="Melakukan" style="rhombus;whiteSpace=wrap;html=1;" vertex="1" parent="1">
          <mxGeometry x="550" y="310" width="80" height="80" as="geometry" />
        </mxCell>
        <mxCell id="v0BU9M_BulBIxNK9-v0d-12" value="1" style="text;html=1;strokeColor=none;fillColor=none;align=center;verticalAlign=middle;whiteSpace=wrap;rounded=0;" vertex="1" parent="1">
          <mxGeometry x="595" y="200" width="20" height="20" as="geometry" />
        </mxCell>
        <mxCell id="v0BU9M_BulBIxNK9-v0d-13" value="n" style="text;html=1;strokeColor=none;fillColor=none;align=center;verticalAlign=middle;whiteSpace=wrap;rounded=0;" vertex="1" parent="1">
          <mxGeometry x="595" y="470" width="20" height="20" as="geometry" />
        </mxCell>
        <mxCell id="v0BU9M_BulBIxNK9-v0d-26" style="rounded=0;orthogonalLoop=1;jettySize=auto;html=1;exitX=1;exitY=1;exitDx=0;exitDy=0;entryX=0;entryY=0.5;entryDx=0;entryDy=0;endArrow=none;endFill=0;" edge="1" parent="1" source="v0BU9M_BulBIxNK9-v0d-15" target="v0BU9M_BulBIxNK9-v0d-3">
          <mxGeometry relative="1" as="geometry" />
        </mxCell>
        <mxCell id="v0BU9M_BulBIxNK9-v0d-15" value="&lt;u&gt;id&lt;/u&gt;" style="ellipse;whiteSpace=wrap;html=1;" vertex="1" parent="1">
          <mxGeometry x="20" y="100" width="95" height="40" as="geometry" />
        </mxCell>
        <mxCell id="v0BU9M_BulBIxNK9-v0d-28" style="edgeStyle=none;rounded=0;orthogonalLoop=1;jettySize=auto;html=1;exitX=0.5;exitY=1;exitDx=0;exitDy=0;entryX=0.421;entryY=-0.008;entryDx=0;entryDy=0;entryPerimeter=0;endArrow=none;endFill=0;" edge="1" parent="1" source="v0BU9M_BulBIxNK9-v0d-16" target="v0BU9M_BulBIxNK9-v0d-3">
          <mxGeometry relative="1" as="geometry" />
        </mxCell>
        <mxCell id="v0BU9M_BulBIxNK9-v0d-16" value="nama" style="ellipse;whiteSpace=wrap;html=1;" vertex="1" parent="1">
          <mxGeometry x="140" y="60" width="95" height="40" as="geometry" />
        </mxCell>
        <mxCell id="v0BU9M_BulBIxNK9-v0d-30" style="edgeStyle=none;rounded=0;orthogonalLoop=1;jettySize=auto;html=1;exitX=0.5;exitY=0;exitDx=0;exitDy=0;entryX=0.5;entryY=1;entryDx=0;entryDy=0;endArrow=none;endFill=0;" edge="1" parent="1" source="v0BU9M_BulBIxNK9-v0d-17" target="v0BU9M_BulBIxNK9-v0d-3">
          <mxGeometry relative="1" as="geometry" />
        </mxCell>
        <mxCell id="v0BU9M_BulBIxNK9-v0d-17" value="email" style="ellipse;whiteSpace=wrap;html=1;" vertex="1" parent="1">
          <mxGeometry x="140" y="240" width="95" height="40" as="geometry" />
        </mxCell>
        <mxCell id="v0BU9M_BulBIxNK9-v0d-31" style="edgeStyle=none;rounded=0;orthogonalLoop=1;jettySize=auto;html=1;exitX=0.5;exitY=0;exitDx=0;exitDy=0;endArrow=none;endFill=0;" edge="1" parent="1" source="v0BU9M_BulBIxNK9-v0d-18">
          <mxGeometry relative="1" as="geometry">
            <mxPoint x="220" y="200" as="targetPoint" />
          </mxGeometry>
        </mxCell>
        <mxCell id="v0BU9M_BulBIxNK9-v0d-18" value="password" style="ellipse;whiteSpace=wrap;html=1;" vertex="1" parent="1">
          <mxGeometry x="260" y="240" width="95" height="40" as="geometry" />
        </mxCell>
        <mxCell id="v0BU9M_BulBIxNK9-v0d-27" style="rounded=0;orthogonalLoop=1;jettySize=auto;html=1;exitX=1;exitY=0;exitDx=0;exitDy=0;endArrow=none;endFill=0;" edge="1" parent="1" source="v0BU9M_BulBIxNK9-v0d-19">
          <mxGeometry relative="1" as="geometry">
            <mxPoint x="160" y="170" as="targetPoint" />
          </mxGeometry>
        </mxCell>
        <mxCell id="v0BU9M_BulBIxNK9-v0d-19" value="created_at" style="ellipse;whiteSpace=wrap;html=1;" vertex="1" parent="1">
          <mxGeometry x="20" y="200" width="95" height="40" as="geometry" />
        </mxCell>
        <mxCell id="v0BU9M_BulBIxNK9-v0d-29" style="edgeStyle=none;rounded=0;orthogonalLoop=1;jettySize=auto;html=1;exitX=0.5;exitY=1;exitDx=0;exitDy=0;entryX=0.428;entryY=0.02;entryDx=0;entryDy=0;entryPerimeter=0;endArrow=none;endFill=0;" edge="1" parent="1" source="v0BU9M_BulBIxNK9-v0d-20" target="v0BU9M_BulBIxNK9-v0d-3">
          <mxGeometry relative="1" as="geometry" />
        </mxCell>
        <mxCell id="v0BU9M_BulBIxNK9-v0d-20" value="updated_at" style="ellipse;whiteSpace=wrap;html=1;" vertex="1" parent="1">
          <mxGeometry x="270" y="60" width="95" height="40" as="geometry" />
        </mxCell>
        <mxCell id="v0BU9M_BulBIxNK9-v0d-23" style="edgeStyle=orthogonalEdgeStyle;rounded=0;orthogonalLoop=1;jettySize=auto;html=1;exitX=0.5;exitY=1;exitDx=0;exitDy=0;" edge="1" parent="1" source="v0BU9M_BulBIxNK9-v0d-20" target="v0BU9M_BulBIxNK9-v0d-20">
          <mxGeometry relative="1" as="geometry" />
        </mxCell>
        <mxCell id="v0BU9M_BulBIxNK9-v0d-41" style="edgeStyle=none;rounded=0;orthogonalLoop=1;jettySize=auto;html=1;exitX=0.5;exitY=1;exitDx=0;exitDy=0;entryX=0.5;entryY=0;entryDx=0;entryDy=0;endArrow=none;endFill=0;" edge="1" parent="1" source="v0BU9M_BulBIxNK9-v0d-32" target="v0BU9M_BulBIxNK9-v0d-4">
          <mxGeometry relative="1" as="geometry" />
        </mxCell>
        <mxCell id="v0BU9M_BulBIxNK9-v0d-32" value="&lt;u&gt;id&lt;/u&gt;" style="ellipse;whiteSpace=wrap;html=1;" vertex="1" parent="1">
          <mxGeometry x="440" y="60" width="95" height="40" as="geometry" />
        </mxCell>
        <mxCell id="v0BU9M_BulBIxNK9-v0d-42" style="edgeStyle=none;rounded=0;orthogonalLoop=1;jettySize=auto;html=1;exitX=0.5;exitY=1;exitDx=0;exitDy=0;endArrow=none;endFill=0;" edge="1" parent="1" source="v0BU9M_BulBIxNK9-v0d-33">
          <mxGeometry relative="1" as="geometry">
            <mxPoint x="590" y="140" as="targetPoint" />
          </mxGeometry>
        </mxCell>
        <mxCell id="v0BU9M_BulBIxNK9-v0d-33" value="nama" style="ellipse;whiteSpace=wrap;html=1;" vertex="1" parent="1">
          <mxGeometry x="542.5" y="60" width="95" height="40" as="geometry" />
        </mxCell>
        <mxCell id="v0BU9M_BulBIxNK9-v0d-44" style="edgeStyle=none;rounded=0;orthogonalLoop=1;jettySize=auto;html=1;exitX=0;exitY=0.5;exitDx=0;exitDy=0;entryX=1;entryY=0.5;entryDx=0;entryDy=0;endArrow=none;endFill=0;" edge="1" parent="1" source="v0BU9M_BulBIxNK9-v0d-34" target="v0BU9M_BulBIxNK9-v0d-4">
          <mxGeometry relative="1" as="geometry" />
        </mxCell>
        <mxCell id="v0BU9M_BulBIxNK9-v0d-34" value="created_at" style="ellipse;whiteSpace=wrap;html=1;" vertex="1" parent="1">
          <mxGeometry x="740" y="110" width="95" height="40" as="geometry" />
        </mxCell>
        <mxCell id="v0BU9M_BulBIxNK9-v0d-45" style="edgeStyle=none;rounded=0;orthogonalLoop=1;jettySize=auto;html=1;exitX=0;exitY=0.5;exitDx=0;exitDy=0;endArrow=none;endFill=0;" edge="1" parent="1" source="v0BU9M_BulBIxNK9-v0d-35">
          <mxGeometry relative="1" as="geometry">
            <mxPoint x="650" y="170" as="targetPoint" />
          </mxGeometry>
        </mxCell>
        <mxCell id="v0BU9M_BulBIxNK9-v0d-35" value="updated_at" style="ellipse;whiteSpace=wrap;html=1;" vertex="1" parent="1">
          <mxGeometry x="745" y="190" width="95" height="40" as="geometry" />
        </mxCell>
        <mxCell id="v0BU9M_BulBIxNK9-v0d-43" style="edgeStyle=none;rounded=0;orthogonalLoop=1;jettySize=auto;html=1;exitX=0.5;exitY=1;exitDx=0;exitDy=0;endArrow=none;endFill=0;" edge="1" parent="1" source="v0BU9M_BulBIxNK9-v0d-36">
          <mxGeometry relative="1" as="geometry">
            <mxPoint x="590" y="140" as="targetPoint" />
          </mxGeometry>
        </mxCell>
        <mxCell id="v0BU9M_BulBIxNK9-v0d-36" value="nrp" style="ellipse;whiteSpace=wrap;html=1;" vertex="1" parent="1">
          <mxGeometry x="650" y="60" width="95" height="40" as="geometry" />
        </mxCell>
        <mxCell id="v0BU9M_BulBIxNK9-v0d-47" style="edgeStyle=none;rounded=0;orthogonalLoop=1;jettySize=auto;html=1;exitX=1;exitY=0.5;exitDx=0;exitDy=0;entryX=0;entryY=0.5;entryDx=0;entryDy=0;endArrow=none;endFill=0;" edge="1" parent="1" source="v0BU9M_BulBIxNK9-v0d-37" target="v0BU9M_BulBIxNK9-v0d-4">
          <mxGeometry relative="1" as="geometry" />
        </mxCell>
        <mxCell id="v0BU9M_BulBIxNK9-v0d-37" value="foto" style="ellipse;whiteSpace=wrap;html=1;" vertex="1" parent="1">
          <mxGeometry x="378" y="110" width="95" height="40" as="geometry" />
        </mxCell>
        <mxCell id="v0BU9M_BulBIxNK9-v0d-48" style="edgeStyle=none;rounded=0;orthogonalLoop=1;jettySize=auto;html=1;exitX=1;exitY=0.5;exitDx=0;exitDy=0;endArrow=none;endFill=0;" edge="1" parent="1" source="v0BU9M_BulBIxNK9-v0d-38">
          <mxGeometry relative="1" as="geometry">
            <mxPoint x="530" y="170" as="targetPoint" />
          </mxGeometry>
        </mxCell>
        <mxCell id="v0BU9M_BulBIxNK9-v0d-38" value="pangkat" style="ellipse;whiteSpace=wrap;html=1;" vertex="1" parent="1">
          <mxGeometry x="355" y="180" width="95" height="40" as="geometry" />
        </mxCell>
        <mxCell id="v0BU9M_BulBIxNK9-v0d-49" style="edgeStyle=none;rounded=0;orthogonalLoop=1;jettySize=auto;html=1;exitX=1;exitY=0.5;exitDx=0;exitDy=0;entryX=0;entryY=0.5;entryDx=0;entryDy=0;endArrow=none;endFill=0;" edge="1" parent="1" source="v0BU9M_BulBIxNK9-v0d-39" target="v0BU9M_BulBIxNK9-v0d-4">
          <mxGeometry relative="1" as="geometry" />
        </mxCell>
        <mxCell id="v0BU9M_BulBIxNK9-v0d-39" value="tanggal lahir" style="ellipse;whiteSpace=wrap;html=1;" vertex="1" parent="1">
          <mxGeometry x="390" y="240" width="95" height="40" as="geometry" />
        </mxCell>
        <mxCell id="v0BU9M_BulBIxNK9-v0d-46" style="edgeStyle=none;rounded=0;orthogonalLoop=1;jettySize=auto;html=1;exitX=0.5;exitY=0;exitDx=0;exitDy=0;entryX=1.046;entryY=0.617;entryDx=0;entryDy=0;entryPerimeter=0;endArrow=none;endFill=0;" edge="1" parent="1" source="v0BU9M_BulBIxNK9-v0d-40" target="v0BU9M_BulBIxNK9-v0d-4">
          <mxGeometry relative="1" as="geometry" />
        </mxCell>
        <mxCell id="v0BU9M_BulBIxNK9-v0d-40" value="kredensial" style="ellipse;whiteSpace=wrap;html=1;" vertex="1" parent="1">
          <mxGeometry x="670" y="240" width="95" height="40" as="geometry" />
        </mxCell>
      </root>
    </mxGraphModel>
  </diagram>
</mxfile>
